<?xml version="1.0" standalone="no"?>
<!DOCTYPE svg PUBLIC "-//W3C//DTD SVG 20010904//EN"
 "http://www.w3.org/TR/2001/REC-SVG-20010904/DTD/svg10.dtd">
<svg version="1.0" xmlns="http://www.w3.org/2000/svg"
 width="1667.000000pt" height="1667.000000pt" viewBox="0 0 1667.000000 1667.000000"
 preserveAspectRatio="xMidYMid meet">
<metadata>
Created by potrace 1.14, written by Peter Selinger 2001-2017
</metadata>
<g transform="translate(0.000000,1667.000000) scale(0.100000,-0.100000)"
fill="#000000" stroke="none">
<path d="M7868 12668 l-3 -872 -160 -18 c-730 -80 -1454 -299 -2135 -644 -422
-213 -913 -536 -1245 -817 l-100 -84 -672 671 -673 671 -325 -325 c-179 -179
-325 -329 -325 -335 0 -5 290 -300 645 -655 l644 -645 -1045 -919 -1046 -919
39 -37 c21 -21 441 -419 933 -885 492 -467 936 -888 985 -935 238 -229 553
-525 670 -629 1009 -901 2256 -1471 3530 -1615 335 -38 811 -49 1125 -26 1405
103 2768 693 3845 1664 79 71 2622 2402 2668 2446 17 16 -33 62 -995 936 -557
505 -1021 927 -1033 936 -20 17 -6 31 613 650 l632 633 -327 328 -328 327
-650 -649 -650 -649 -90 75 c-233 194 -595 446 -880 613 -187 109 -623 323
-815 400 -433 174 -867 298 -1292 370 -179 30 -504 70 -570 70 l-38 0 0 870 0
870 -465 0 -465 0 -2 -872z m812 -1788 c654 -41 1279 -198 1890 -475 427 -193
916 -504 1295 -824 140 -118 1995 -1802 1994 -1810 0 -6 -1850 -1704 -1966
-1805 -592 -514 -1257 -898 -1958 -1132 -562 -187 -1062 -268 -1650 -268 -574
0 -1062 77 -1599 251 -713 231 -1409 631 -1986 1141 -117 103 -1890 1785
-1890 1792 0 9 1990 1758 2112 1857 1115 907 2436 1354 3758 1273z"/>
<path d="M8065 10499 c-1126 -116 -2071 -881 -2414 -1954 -95 -297 -126 -504
-126 -855 0 -285 11 -393 61 -620 81 -362 263 -752 495 -1060 481 -636 1180
-1030 1973 -1111 153 -15 543 -6 681 16 617 98 1148 367 1576 796 442 444 710
993 800 1639 24 169 13 729 -14 757 -3 2 -1030 -453 -1045 -463 -2 -1 -7 -46
-13 -100 -40 -429 -218 -800 -526 -1094 -458 -438 -1106 -589 -1713 -398 -129
40 -355 153 -465 232 -178 129 -331 288 -451 471 -65 98 -131 221 -124 228 3
2 937 420 2075 927 1139 508 2072 925 2073 926 9 7 -23 79 -87 196 -429 787
-1180 1312 -2071 1449 -155 24 -534 34 -685 18z m392 -655 c502 -103 673 -722
297 -1073 -113 -106 -257 -161 -422 -161 -252 0 -461 134 -567 363 -44 97 -59
176 -53 295 6 121 39 219 104 315 145 211 393 313 641 261z"/>
</g>
</svg>
